<?xml version="1.0" encoding="UTF-8" standalone="no"?>
<!-- Generator: Adobe Illustrator 26.0.2, SVG Export Plug-In . SVG Version: 6.00 Build 0)  -->

<svg
   xmlns:dc="http://purl.org/dc/elements/1.1/"
   xmlns:cc="http://creativecommons.org/ns#"
   xmlns:rdf="http://www.w3.org/1999/02/22-rdf-syntax-ns#"
   xmlns:svg="http://www.w3.org/2000/svg"
   xmlns="http://www.w3.org/2000/svg"
   xmlns:sodipodi="http://sodipodi.sourceforge.net/DTD/sodipodi-0.dtd"
   xmlns:inkscape="http://www.inkscape.org/namespaces/inkscape"
   version="1.1"
   id="Lager_1"
   x="0px"
   y="0px"
   viewBox="0 0 1000 221.00478"
   xml:space="preserve"
   sodipodi:docname="barebells_logo.svg"
   width="1000"
   height="221.00478"
   inkscape:version="0.92.4 (5da689c313, 2019-01-14)"><metadata
   id="metadata29"><rdf:RDF><cc:Work
       rdf:about=""><dc:format>image/svg+xml</dc:format><dc:type
         rdf:resource="http://purl.org/dc/dcmitype/StillImage" /><dc:title></dc:title></cc:Work></rdf:RDF></metadata><defs
   id="defs27" /><sodipodi:namedview
   pagecolor="#ffffff"
   bordercolor="#111111"
   borderopacity="1"
   objecttolerance="10"
   gridtolerance="10"
   guidetolerance="10"
   inkscape:pageopacity="0"
   inkscape:pageshadow="2"
   inkscape:window-width="1920"
   inkscape:window-height="1017"
   id="namedview25"
   showgrid="false"
   fit-margin-top="0"
   fit-margin-left="0"
   fit-margin-right="0"
   fit-margin-bottom="0"
   inkscape:zoom="0.98365527"
   inkscape:cx="506.42262"
   inkscape:cy="37.323216"
   inkscape:window-x="1912"
   inkscape:window-y="-8"
   inkscape:window-maximized="1"
   inkscape:current-layer="Lager_1" />
<style
   type="text/css"
   id="style2">
	.st0{fill:#FFFFFF;}
</style>
<path
   d="m 750.55023,92.936391 c 0.59535,-1.190691 1.19069,-2.381382 1.48837,-3.869745 5.95345,-22.623129 11.90691,-45.246262 17.86036,-67.571712 3.57207,-13.0975997 12.79993,-20.53941967 26.49288,-21.13476967 2.67905,0 5.35811,0 7.73949,0 6.25112,-0.29767 11.31156,2.08370997 15.47898,6.54879997 4.46509,4.7627697 9.22786,9.5255297 13.99062,13.9906197 2.67905,2.67906 3.86974,2.38138 4.46509,-0.89302 2.08371,-13.9906197 14.58597,-19.34871967 25.59986,-19.64639967 2.08371,0 4.16742,0 6.5488,-0.29767 7.14414,-0.29767 13.0976,2.08370997 18.15804,7.44181997 5.95345,6.2511297 11.90691,12.2045797 18.15803,18.1580397 5.35811,5.06043 6.5488,10.71622 4.76277,17.86036 -5.35811,19.944075 -10.41855,39.590477 -15.47899,59.534556 -0.29767,0.89301 -0.59534,1.48836 -0.59534,2.38138 0,0.59534 0.29767,1.48836 0.89302,1.78603 0.59534,0.29768 1.48836,0 1.78603,-0.59534 0.59535,-0.59535 1.19069,-1.48837 1.78604,-2.38138 6.5488,-9.227859 12.79993,-18.455715 19.6464,-27.68357 12.20458,-15.776655 33.04168,-19.348728 47.32997,-7.144146 9.52553,8.037164 18.15804,16.967347 26.49287,26.492875 9.22788,10.418551 8.93018,25.599861 0.29768,36.613751 -1.48837,2.08371 -2.08371,3.86974 -1.48837,6.5488 2.08371,10.12087 4.46509,19.94407 4.16742,30.66029 -1.19069,29.4696 -23.21847,50.60437 -52.68808,50.60437 -8.93018,0 -17.86036,-0.29767 -26.49287,-2.97673 -7.14415,-2.08371 -13.69295,-5.06044 -18.75338,-10.71622 -2.08371,-2.38138 -3.57208,-2.38138 -6.25113,-0.29767 -12.50226,10.12087 -26.49288,14.28829 -42.56721,11.90691 -7.73949,-1.19069 -13.99061,-5.06044 -19.05105,-10.71622 -2.38138,-2.97673 -4.46509,-2.67905 -7.14415,-0.29767 -13.39527,10.71622 -28.27891,14.28829 -45.24625,10.41854 -7.44182,-1.78603 -13.09761,-6.5488 -17.86037,-12.20458 -2.67905,-2.97673 -4.46509,-2.97673 -7.73949,-0.59534 -20.53942,14.88363 -43.46022,18.45571 -67.86939,12.20458 -8.93018,-2.38138 -16.07433,-8.03717 -22.32545,-14.58597 -5.65579,-5.95345 -5.65579,-5.95345 -12.50226,-1.19069 -19.6464,13.0976 -41.37651,18.75339 -64.89266,17.86037 -6.25113,-0.29768 -11.90691,-2.08371 -17.26502,-5.35811 -0.89302,-0.59535 -2.97673,-0.89302 -3.57207,-0.29767 -5.06044,4.46509 -11.01389,5.65578 -17.26502,5.95345 -5.35811,0.29767 -11.01389,0 -16.372,0 -6.25113,0 -11.31157,-2.08371 -15.18131,-7.14415 -1.78604,-2.38138 -3.57208,-2.38138 -6.25113,-1.19069 -18.15804,9.22786 -37.20909,10.71622 -56.8555,5.65579 -7.44181,-2.08371 -13.99061,-5.95346 -19.34872,-11.31157 -4.4651,-4.76276 -3.86975,-4.76276 -8.93019,-0.59534 -15.18131,12.20458 -32.44633,16.372 -51.49738,11.90691 -4.46509,-1.1907 -8.93018,-4.16742 -12.79993,-7.44182 -5.95346,-5.06044 -11.31156,-11.01389 -16.96735,-16.66968 -2.08371,-2.38138 -3.57207,-2.08371 -5.35811,0.59535 -8.33483,11.90691 -18.75338,20.83709 -33.04167,24.40916 -14.28829,3.57208 -27.08822,0.89302 -38.10211,-9.22785 -2.08371,-2.08371 -3.2744,-1.19069 -5.06044,0.29767 -9.52553,6.84647 -19.94407,11.01389 -31.85098,10.71622 -10.12088,-0.29767 -18.75339,-3.86975 -25.89753,-10.71622 -5.06044,-5.06044 -10.41855,-10.12087 -15.47899,-15.47898 -1.78603,-1.78604 -2.97672,-1.78604 -4.76276,0 -19.05106,19.6464 -42.86488,25.59985 -69.06008,25.00451 -10.41854,-0.29767 -20.539414,-2.67906 -30.660288,-6.5488 -1.190691,-0.59535 -3.2744,-0.29767 -4.465091,0.29767 -12.502255,6.25113 -25.897529,9.52553 -39.888148,8.93018 -5.35811,-0.29767 -9.823201,-1.78603 -13.692947,-5.65578 -6.251128,-6.25113 -12.204583,-13.0976 -19.0510559,-18.75338 -8.334837,-7.14415 -7.144146,-18.15804 -2.0837092,-25.30219 4.4650912,-6.5488 10.7162191,-10.41854 18.1580381,-13.39527 3.572073,-1.48836 7.441818,-2.08371 10.716219,-3.57207 1.786036,-0.89302 4.465091,-2.08371 5.060436,-3.57207 3.572073,-7.14415 6.548801,-14.58597 9.525528,-22.02779 0.297673,-0.89302 -0.595345,-2.97673 -1.488363,-3.86974 -8.930183,-8.93019 -18.455711,-17.5627 -27.088221,-26.790552 -6.5488,-7.144146 -6.5488,-16.967347 -5.953455,-26.195202 C 14.107854,51.559879 25.717092,36.973914 40.898402,25.067004 58.758767,11.374054 79.298187,4.2299143 101.32597,1.5508543 c 20.24174,-2.67905 39.2928,-2.08370997 57.74851,5.06044 9.8232,3.8697497 18.75338,9.2278597 26.1952,16.9673497 7.14415,7.44182 14.88364,14.58596 22.02778,22.32545 5.95346,6.548804 9.52553,14.288295 10.71622,23.218477 0.29768,2.679055 1.19069,3.572073 4.16742,2.679055 11.90691,-4.167418 23.21848,-3.869746 34.23237,3.2744 1.78603,1.190691 2.67905,0.893019 3.86974,-0.595345 5.95346,-7.739492 13.99062,-9.823201 23.21848,-8.63251 11.90691,1.190691 21.73011,6.251128 29.4696,15.478983 5.65578,6.846473 5.95346,6.548801 8.63251,-2.381382 1.48836,-5.060437 4.16742,-9.823201 7.44182,-13.990619 6.84647,-8.037164 19.6464,-7.739491 25.59986,-0.297673 0.29767,0.595346 0.89301,0.893018 1.48836,1.488364 5.65578,6.251128 11.60924,11.311564 20.24175,13.395274 5.95345,1.488363 11.01389,5.358109 15.47898,9.8232 4.76276,5.060437 9.8232,9.823201 14.58596,14.585962 2.97673,2.97673 3.2744,2.97673 5.65579,-0.59534 11.31156,-16.074331 26.1952,-26.79055 45.24625,-32.148659 10.41855,-2.976728 20.8371,-2.381382 31.25564,0.297672 6.5488,1.786037 12.50226,5.060437 17.26502,10.418547 2.67906,2.976727 5.95346,5.953455 8.93018,8.930182 2.67906,2.679055 3.57208,2.381382 4.76277,-1.190691 4.46509,-16.967347 8.93018,-33.63702 13.39527,-50.604367 1.78604,-6.5488 3.57208,-13.0976 5.06044,-19.6464 1.48836,-6.84647 5.65578,-11.3115697 11.60924,-14.5859697 8.93018,-4.76275997 18.45571,-5.65577997 27.98123,-4.16740997 3.27441,0.29767 6.54881,2.38137997 8.93019,4.76275997 7.14414,6.5487997 13.99062,13.6929497 20.83709,20.5394197 4.16742,4.16742 5.65578,9.52553 4.16742,15.47898 -2.08371,8.334839 -4.46509,16.967349 -6.84647,25.302185 -0.59535,2.381382 -0.29768,3.572073 2.38138,4.465092 6.25112,1.786036 11.60923,5.358109 16.07433,10.120873 6.25112,6.548801 12.79992,12.799928 19.05105,19.051056 2.67906,2.67906 3.2744,2.67906 5.65578,-0.29767 11.90691,-14.88364 27.08822,-25.302186 45.84161,-29.469605 9.8232,-2.083709 19.34873,-1.488364 28.87425,1.488364 5.95346,1.786036 11.31157,4.762764 15.77666,9.525528 3.86975,3.869746 7.73949,8.037164 11.60924,11.90691 -0.29768,-0.297673 0.29767,-0.595346 0.59534,-0.595346 z M 244.50656,172.71269 c 2.38138,2.97673 4.46509,6.84647 7.44182,9.22785 10.41854,8.93019 22.02778,9.52553 34.53004,4.4651 12.79992,-5.35811 21.13476,-15.47899 27.98123,-27.3859 7.7395,-13.39527 11.90691,-28.27891 15.77666,-43.16255 1.78604,-6.84647 3.57207,-13.99062 5.65578,-20.837089 3.2744,0.595345 5.95346,1.190691 8.33484,1.786036 0.89302,0.297673 2.08371,0.595346 2.97673,0.893018 5.65578,2.08371 7.73949,5.655785 7.14414,11.609235 -0.29767,2.67906 -1.19069,5.65579 -1.78603,8.33484 -3.86975,16.66967 -8.33484,33.33935 -11.90691,50.00902 -2.38139,11.01389 3.2744,18.45571 14.58596,20.24175 14.28829,2.38138 27.38589,-0.29767 39.2928,-8.93018 5.06044,-3.86975 9.8232,-8.33484 13.99062,-11.90691 4.16742,4.76276 7.73949,9.8232 12.50226,13.99062 8.63251,7.44181 19.34873,8.63251 30.06495,8.93018 17.56269,0.59534 33.04167,-5.65578 46.73462,-16.372 2.97673,-2.08371 5.65578,-4.46509 9.22785,-6.84648 -1.48836,5.95346 -2.67905,11.0139 -3.86974,16.372 -1.19069,5.06044 -0.29768,6.54881 5.06043,6.54881 5.95346,0.29767 12.20459,0.29767 18.15804,0 2.38138,0 4.76277,-0.59535 6.84648,-1.48837 1.78603,-0.89302 3.57207,-2.97673 4.46509,-4.76276 1.19069,-2.38138 1.78603,-5.35811 2.67905,-8.33484 0.89302,1.19069 1.78604,2.08371 2.38138,2.97673 5.65579,7.44182 13.0976,11.60924 22.62313,11.60924 26.79055,0.29767 50.3067,-7.7395 70.25077,-25.59986 1.19069,-1.19069 2.67906,-2.38138 3.86975,-3.2744 0.29767,0.29767 0.59534,0.59534 0.59534,0.59534 0.29767,0.89302 0.89302,2.08371 1.19069,2.97673 4.76277,12.20458 13.39528,20.83709 26.19521,24.11149 15.47898,3.86975 31.25563,3.57208 45.54393,-3.86974 9.22785,-4.76277 17.56269,-11.31157 26.1952,-16.96735 1.19069,-0.89302 2.38138,-1.78603 4.16742,-3.2744 0,1.78604 0,2.67906 0,3.57207 0.59534,11.90691 6.84647,19.05106 18.45571,21.13477 11.60923,2.08371 22.62313,-0.29767 32.14865,-7.14415 5.35811,-3.86974 10.12088,-8.33483 15.18131,-12.20458 0.59535,-0.59534 1.48837,-0.89302 2.38139,-1.48836 2.38138,15.47898 10.71621,22.32545 25.89752,21.73011 11.0139,-0.29767 20.53942,-4.16742 28.87426,-11.31157 2.97673,-2.38138 5.65578,-5.35811 8.63251,-8.33483 6.84647,11.01389 16.372,17.86036 29.17193,19.34873 7.14415,0.89301 14.28829,1.48836 21.13477,0.89301 28.57658,-2.08371 41.07884,-22.02778 40.78116,-44.94858 0,-10.41855 -2.97672,-21.13477 -5.06043,-31.55331 -0.29768,-2.08371 0,-3.2744 1.48836,-4.76277 5.06044,-4.76276 7.73949,-10.716216 6.84647,-17.56269 -1.48836,-14.883637 -15.77665,-23.81382 -30.36262,-19.646401 -7.73949,2.083709 -12.20458,7.739491 -16.66967,13.692946 -8.93018,12.502256 -17.56269,24.706835 -26.49288,37.209095 -0.59534,0.89302 -2.08371,2.08371 -3.2744,2.08371 -6.25112,-0.29767 -10.71622,2.67905 -14.58596,7.14414 -5.35811,6.25113 -6.84647,13.99062 -7.44182,22.32546 0,1.19069 -0.29767,3.2744 -1.19069,3.86975 -3.86975,3.2744 -8.03717,6.5488 -12.20458,8.93018 -5.35811,3.2744 -11.0139,-0.29767 -11.31157,-6.5488 0,-3.2744 0.29767,-6.5488 0.89302,-9.8232 11.31156,-43.46022 22.62313,-86.920445 33.93469,-130.380666 1.78604,-6.25113 -0.89301,-10.7162197 -7.44182,-11.9069097 -6.84647,-1.19069 -13.39527,-0.59535 -19.94407,2.3813797 -3.86975,1.78604 -6.25113,4.76277 -7.44182,8.93018 -7.73949,29.171933 -15.18131,58.343863 -23.21847,87.515796 -3.2744,12.20458 -6.84648,24.11149 -11.31157,35.72073 -3.86974,10.41854 -11.60923,18.15803 -21.43243,23.51614 -6.25113,3.57208 -11.90691,0.29768 -12.20459,-6.84647 0,-2.97673 0.29768,-6.25113 0.89302,-9.22785 8.93018,-33.9347 17.56269,-68.167065 26.49288,-102.101758 2.67905,-9.823198 5.3581,-19.646398 7.73949,-29.469598 1.19069,-5.65579 -1.78604,-9.5255297 -7.44182,-10.4185497 -3.57207,-0.59535 -7.14415,-0.59535 -10.71622,0 -11.60924,1.4883597 -15.77666,5.0604397 -18.75338,16.3719997 -8.93019,33.637021 -17.5627,67.274042 -26.49288,100.613386 -7.44182,27.98124 -27.98124,43.46023 -50.90204,46.73463 -15.77665,2.38138 -29.4696,-13.0976 -25.30218,-27.98124 6.25113,0 12.79993,0.89302 18.75338,-0.29768 19.34873,-3.2744 33.33935,-14.28829 41.37651,-32.44632 5.95346,-13.395279 -0.29767,-26.195207 -13.99062,-31.255644 -7.73949,-2.679055 -15.47898,-3.2744 -23.51614,-2.083709 -16.96735,2.679054 -30.36262,11.609237 -41.67419,24.111493 -9.8232,11.01389 -14.58596,24.40917 -17.26502,38.99513 -0.59534,2.67905 -1.78603,5.35811 -3.57207,7.14415 -7.73949,9.22785 -17.26502,15.77665 -27.98124,20.83709 -0.89302,0.29767 -1.78604,0.59534 -2.97673,1.19069 3.57208,-5.65578 6.84648,-10.71622 9.8232,-16.07433 8.93019,-16.372 13.39528,-33.33935 9.8232,-52.09273 -2.38138,-11.609238 -8.33483,-20.53942 -20.24174,-23.813821 -9.22786,-2.381382 -18.45571,-1.488363 -26.79055,2.976728 -5.06044,2.679055 -9.52553,5.953455 -14.58596,9.227855 0.29767,-0.893018 0.29767,-2.083709 0.59534,-2.976727 6.25113,-22.920802 12.50226,-46.139281 18.45571,-69.060081 1.48837,-5.95345 -0.59534,-9.5255297 -6.5488,-10.4185397 -7.73949,-0.89302 -15.47898,0 -22.32546,4.1674197 -3.86974,2.0837 -5.95345,5.65578 -6.84647,9.8232 -9.22785,34.827708 -18.45571,69.953092 -27.68356,104.780806 -5.95346,22.9208 -21.13477,36.91142 -43.16255,43.75789 -5.35811,1.78604 -11.01389,2.08371 -16.66968,0.59535 -11.01389,-3.2744 -17.26502,-13.99062 -16.07433,-27.68357 1.1907,0 2.38139,0.29767 3.57208,0.29767 26.1952,3.86975 50.00902,-13.99061 57.45084,-33.63702 4.76276,-13.097597 -0.59535,-25.004507 -13.69295,-30.064944 -11.01389,-4.167419 -22.32545,-4.167419 -33.63702,-0.297673 -29.76727,10.716219 -47.32997,35.423057 -50.00902,66.678697 0,1.19069 -0.29767,2.67905 -0.89302,3.57207 -3.2744,4.16742 -6.25113,8.93019 -9.8232,12.50226 -2.38138,2.38138 -5.95345,3.86974 -9.22785,4.46509 -4.4651,1.19069 -7.44182,-1.19069 -7.7395,-5.95346 -0.29767,-2.97672 0.29768,-6.5488 1.19069,-9.52552 3.2744,-11.60924 7.44182,-23.21848 10.71622,-35.12539 3.57208,-12.20458 0,-21.730109 -10.12087,-27.088219 -5.35811,-2.976727 -11.31156,-4.465091 -17.26502,-6.251128 -4.76276,-1.488363 -9.8232,-2.679054 -14.88364,-3.869745 0.59535,-1.488364 0.89302,-2.381382 1.19069,-3.572073 0.59535,-2.679055 1.48837,-5.655783 -1.19069,-7.441819 -2.67905,-2.083709 -5.65578,-1.786037 -8.33483,-0.297673 -1.78604,0.893018 -3.2744,2.083709 -4.16742,3.572073 -1.78604,2.976728 -3.57208,6.548801 -4.76277,9.823201 -5.35811,18.455713 -10.12087,36.911423 -15.47898,55.367133 -2.08371,7.44182 -4.76276,14.58596 -10.12087,20.24175 -3.2744,3.57207 -7.44182,7.14414 -11.90691,9.52552 -5.06044,2.67906 -10.41855,-0.59534 -10.71622,-6.25112 -0.29767,-2.67906 0.29767,-5.65579 0.89302,-8.33484 5.65578,-22.32546 11.31156,-44.65091 17.26502,-67.274043 1.19069,-4.762764 0.59534,-6.251128 -3.86975,-7.739491 -4.46509,-1.488364 -9.22785,-2.679055 -14.28829,-3.572073 -8.63251,-1.190691 -13.99062,2.679054 -16.66968,11.013891 -0.59534,2.08371 -1.48836,4.465092 -2.38138,7.144146 -1.19069,-1.190691 -1.78603,-2.083709 -2.67905,-2.976727 -4.16742,-3.2744 -8.03717,-7.144146 -12.79993,-9.525528 -10.12087,-4.762764 -19.6464,-1.786037 -28.87426,3.2744 -25.00451,14.585965 -42.26953,48.520655 -38.69745,77.990265 1.78603,13.99062 11.31156,25.59985 23.81382,28.27891 10.41854,2.38138 20.24174,0 29.17192,-5.95346 5.06044,-2.97673 9.22786,-6.84647 13.39528,-10.12087 z M 98.349242,20.304244 C 92.69346,30.722784 87.037678,40.843664 81.977241,51.559879 73.047059,69.717917 68.87964,89.661991 62.628513,108.71305 c -4.167419,12.79993 -8.037165,25.59985 -12.799929,38.10211 -3.2744,8.63251 -8.334837,14.88364 -18.45571,16.372 -7.441819,1.19069 -14.288292,4.76276 -19.051056,11.01389 -2.9767277,3.57208 -4.7627641,7.73949 -2.6790551,12.20459 2.0837091,4.46509 6.5488011,4.76276 10.7162191,4.76276 12.502256,0.29767 23.81382,-2.97673 34.827712,-8.93018 2.679055,-1.48837 5.060437,-2.38139 8.037164,-0.89302 16.669674,7.14414 33.934693,8.93018 51.795052,5.65578 19.05106,-3.2744 35.42306,-11.60924 46.73462,-27.68356 13.09761,-18.45572 8.63251,-41.37652 -10.12087,-53.87877 -2.67905,-1.78604 -5.65578,-3.2744 -8.63251,-5.06044 1.78604,-0.595345 3.2744,-1.190691 4.76276,-1.786036 9.52553,-3.572073 18.75339,-7.739492 26.79055,-14.585965 20.53942,-17.860365 19.34873,-45.246255 -2.67905,-61.022915 -4.76277,-3.2744 -10.12088,-5.95345 -15.47899,-8.03716 C 137.0467,7.2066443 117.10262,7.2066443 97.158551,10.778714 74.535423,14.648454 54.293676,23.280964 37.921674,39.950644 24.526401,52.452898 18.870618,67.93188 23.33571,86.089918 c 2.679054,11.90691 16.074328,16.372002 25.897529,8.930183 4.167418,-2.976728 5.060437,-5.35811 3.2744,-10.418547 C 50.126257,77.457408 49.828584,70.01559 51.614621,62.573771 57.270403,37.569264 75.726114,26.555364 98.349242,20.304244 Z"
   id="path4"
   inkscape:connector-curvature="0"
   style="stroke-width:2.97672749" />
<path
   class="st0"
   d="m 244.50656,172.71269 c -4.16742,3.2744 -8.33484,7.14414 -13.39528,10.41854 -8.93018,5.65579 -18.75338,8.03717 -29.17192,5.95346 -12.50226,-2.67905 -22.32546,-14.28829 -23.81382,-28.27891 -3.57208,-29.76728 13.69294,-63.70197 39.59047,-77.990262 9.22786,-5.060437 18.75338,-8.037164 28.87426,-3.2744 4.76276,2.083709 8.63251,6.251127 12.79993,9.525528 0.89301,0.595345 1.48836,1.786036 2.67905,2.976727 0.89302,-2.679055 1.48836,-4.762764 2.38138,-7.144146 2.67906,-8.037164 8.33484,-11.90691 16.66968,-11.013892 4.76276,0.595346 9.52552,1.786037 14.28829,3.572073 4.76276,1.488364 5.06044,3.274401 3.86974,7.739492 -5.65578,22.32546 -11.60923,44.65091 -17.26502,67.27404 -0.59534,2.67906 -1.19069,5.65578 -0.89301,8.33484 0.59534,5.65578 5.65578,8.93018 10.71622,6.25113 4.46509,-2.38139 8.33483,-5.65579 11.90691,-9.52553 5.3581,-5.65578 8.03716,-12.79993 10.12087,-20.24175 5.06044,-18.45571 10.12087,-36.91142 15.47898,-55.36713 0.89302,-3.572073 2.67906,-6.846474 4.76277,-9.823201 0.89301,-1.488364 2.67905,-2.679055 4.16741,-3.572073 2.67906,-1.488364 5.95346,-1.488364 8.33484,0.297673 2.67906,2.083709 1.78604,4.762764 1.19069,7.441818 -0.29767,0.893019 -0.59534,2.08371 -1.19069,3.572073 5.06044,1.190691 10.12087,2.381382 14.88364,3.869746 5.95345,1.786037 11.90691,3.572073 17.26502,6.251128 10.12087,5.655782 13.69294,14.883636 10.12087,27.088216 -3.2744,11.60924 -7.14414,23.21848 -10.71622,35.12539 -0.89302,2.97673 -1.19069,6.25113 -1.19069,9.52553 0.29767,4.76276 2.97673,7.14414 7.73949,5.95345 3.2744,-0.89302 6.84648,-2.38138 9.22786,-4.46509 3.86974,-3.57207 6.84647,-8.03716 9.8232,-12.50225 0.59534,-0.89302 0.89302,-2.38139 0.89302,-3.57208 2.97673,-31.25564 20.24174,-55.962475 50.00902,-66.678694 11.01389,-3.869746 22.62313,-3.869746 33.63702,0.297673 13.0976,4.762764 18.75338,16.967346 13.69295,30.064951 -7.44182,19.6464 -30.95797,37.50676 -57.45084,33.63702 -1.1907,-0.29768 -2.38139,-0.29768 -3.57208,-0.29768 -1.48836,13.39528 5.06044,24.40917 16.07433,27.68357 5.65578,1.48836 11.01389,1.19069 16.66968,-0.59535 22.32545,-6.84647 37.20909,-20.83709 43.16254,-43.75789 9.22786,-34.827711 18.45571,-69.953096 27.68357,-104.780806 1.19069,-4.16742 3.2744,-7.73949 6.84647,-9.8232 6.84648,-3.8697497 14.58597,-5.0604397 22.32546,-4.1674197 6.25113,0.89302 8.33484,4.4650897 6.5488,10.4185497 -6.25113,22.9208 -12.50226,46.139272 -18.45571,69.060073 -0.29767,0.893019 -0.29767,2.08371 -0.59535,2.976728 5.06044,-3.2744 9.52553,-6.846473 14.58597,-9.227855 8.33484,-4.465092 17.56269,-5.060437 26.79055,-2.976728 12.20458,2.976728 18.15803,12.204583 20.24174,23.813818 3.57208,18.45571 -0.89302,35.72073 -9.8232,52.09273 -2.97673,5.35811 -6.25113,10.41855 -9.8232,16.07433 1.19069,-0.29767 2.08371,-0.59534 2.97673,-1.19069 10.71622,-5.06044 20.24175,-11.90691 27.98124,-20.83709 1.78603,-2.08371 2.97672,-4.76277 3.57207,-7.14415 2.67905,-14.28829 7.44182,-27.68356 17.26502,-38.99513 11.01389,-12.799926 24.70684,-21.730109 41.67418,-24.111491 8.03717,-1.190691 15.77666,-0.595345 23.51615,2.08371 13.99062,4.762764 19.94408,17.562692 13.99062,31.255641 -7.73949,18.15804 -22.02778,28.87425 -41.37651,32.44633 -5.95346,1.19069 -12.50226,0.29767 -18.75338,0.29767 -4.16742,15.18131 9.52552,30.36262 25.30218,27.98124 22.62313,-3.2744 43.46022,-18.75338 50.90204,-46.73462 8.93018,-33.637024 17.56269,-67.274045 26.49287,-100.613396 2.97673,-11.31156 7.14415,-14.88363 18.75339,-16.3719997 3.57207,-0.29767 7.14414,-0.29767 10.71622,0 5.65578,0.89302 8.63251,4.7627697 7.44182,10.4185497 -2.38139,9.8232 -5.06044,19.6464 -7.7395,29.469601 -8.93018,33.934693 -17.86036,68.167055 -26.49287,102.101755 -0.89302,2.97673 -0.89302,6.25113 -0.89302,9.22785 0.29767,7.14415 5.65578,10.41855 12.20458,6.84648 9.8232,-5.35811 17.26502,-13.39528 21.43244,-23.51615 4.46509,-11.60924 8.03717,-23.81382 11.31157,-35.72073 8.03716,-29.171931 15.47898,-58.34386 23.21847,-87.515786 1.19069,-4.16742 3.57207,-7.14415 7.44182,-8.93019 6.5488,-2.6790497 13.0976,-3.2743997 19.94407,-2.3813797 6.5488,0.89302 9.22786,5.3581097 7.44182,11.9069097 -11.31156,43.460224 -22.62313,86.920446 -33.93469,130.380666 -0.89302,3.2744 -1.19069,6.5488 -0.89302,9.8232 0.29767,6.25113 5.65578,9.52553 11.31156,6.5488 4.4651,-2.38138 8.33484,-5.95345 12.20459,-8.93018 0.89302,-0.59535 0.89302,-2.67906 1.19069,-3.86975 0.29767,-8.03716 1.78603,-15.77665 7.44182,-22.32545 3.86974,-4.46509 8.33483,-7.14415 14.58596,-7.14415 1.19069,0 2.38138,-1.19069 3.2744,-2.08371 8.93018,-12.20458 17.56269,-24.706836 26.49288,-37.209092 4.16742,-5.953455 8.93018,-11.609237 16.66967,-13.692946 14.58597,-4.167419 28.57658,5.060436 30.36262,19.646401 0.89302,6.846473 -1.78604,12.799927 -6.84647,17.562697 -1.48837,1.48836 -2.08371,2.67905 -1.48837,4.76276 1.78604,10.41855 4.76277,20.83709 5.06044,31.55331 0.29767,22.62313 -12.20458,42.5672 -40.78117,44.94859 -7.14414,0.59534 -14.28829,0 -21.13476,-0.89302 -12.79993,-1.48837 -22.32546,-8.33484 -29.17193,-19.34873 -2.97673,2.97673 -5.65578,5.65578 -8.63251,8.33484 -8.33484,7.14414 -17.86037,11.01389 -28.87426,11.31156 -15.47898,0.59535 -23.51614,-6.25113 -25.89753,-21.73011 -0.89301,0.59535 -1.48836,0.89302 -2.38138,1.48836 -5.06043,4.16742 -10.12087,8.33484 -15.18131,12.20459 -9.52553,7.14414 -20.53942,9.22785 -32.14866,7.14414 -11.31156,-2.08371 -17.56269,-9.22785 -18.45571,-21.13476 0,-0.89302 0,-1.78604 0,-3.57208 -1.78603,1.1907 -2.97672,2.38139 -4.16741,3.2744 -8.63251,5.65579 -16.96735,12.20459 -26.19521,16.96735 -14.28829,7.14415 -30.06494,7.73949 -45.54393,3.86975 -13.0976,-3.2744 -21.43243,-11.90691 -26.1952,-24.1115 -0.29767,-0.89301 -0.89302,-2.0837 -1.19069,-2.97672 0,0 -0.29767,-0.29768 -0.59535,-0.59535 -1.19069,1.19069 -2.67905,2.08371 -3.86974,3.2744 -19.94407,17.86037 -43.46022,25.89753 -70.25077,25.59986 -9.52553,0 -16.96735,-4.16742 -22.62313,-11.60924 -0.59534,-0.89302 -1.48836,-1.78604 -2.38138,-2.97673 -0.89302,3.2744 -1.19069,5.95346 -2.67906,8.33484 -0.89301,1.78604 -2.67905,3.86975 -4.46509,4.76276 -2.08371,1.1907 -4.46509,1.48837 -6.84647,1.48837 -5.95345,0.29767 -12.20458,0.29767 -18.15804,0 -5.35811,-0.29767 -6.25113,-1.48837 -5.06043,-6.5488 1.19069,-5.06044 2.38138,-10.41855 3.86974,-16.372 -3.57207,2.67905 -6.25113,4.76276 -9.22785,6.84647 -13.69295,10.71622 -29.17193,16.96735 -46.73463,16.372 -10.71621,-0.29767 -21.73011,-1.48836 -30.06494,-8.93018 -4.76277,-4.16742 -8.33484,-9.22786 -12.50226,-13.99062 -4.16742,3.57207 -8.93018,8.03716 -13.99062,11.90691 -11.60923,8.63251 -25.00451,11.31156 -39.2928,8.93018 -11.31157,-1.78603 -16.96735,-9.22785 -14.58597,-20.24175 3.57208,-16.66967 7.7395,-33.33934 11.90691,-50.00902 0.59535,-2.67905 1.48837,-5.65578 1.78604,-8.33483 0.59535,-5.95346 -1.48836,-9.52553 -7.14414,-11.609242 -0.89302,-0.297673 -2.08371,-0.893018 -2.97673,-0.893018 -2.67906,-0.595346 -5.35811,-1.190691 -8.33484,-1.786037 -1.78604,7.144147 -3.86975,13.990617 -5.65578,20.837097 -3.86975,14.88363 -8.03717,29.76727 -15.77666,43.16255 -6.84647,11.60923 -15.18131,22.02778 -27.98124,27.38589 -12.20458,5.06043 -24.11149,4.46509 -34.53003,-4.46509 -3.86975,-2.67906 -5.95346,-6.5488 -8.33484,-9.52553 z M 547.53742,151.8756 c 0.29767,2.38138 0.29767,4.46509 0.29767,6.5488 0.59535,7.73949 6.84647,11.90691 13.99062,8.63251 3.86974,-1.78604 7.73949,-4.76277 10.41855,-8.03717 7.73949,-8.93018 12.20458,-19.34873 14.58596,-30.66029 1.78604,-8.63251 2.67905,-17.26502 0,-25.89753 -2.08371,-6.846474 -6.25113,-8.63251 -12.50226,-5.655783 -7.73949,3.572073 -13.39527,9.525533 -16.96734,16.967343 -5.95346,11.90691 -8.93018,25.00452 -9.8232,38.10212 z M 256.41347,109.60607 c -0.29767,-2.08371 -0.29767,-4.16742 -0.59535,-5.95346 -0.59534,-5.655782 -4.46509,-8.930182 -10.12087,-8.632509 -5.65578,0.297672 -10.12087,3.572073 -13.39527,7.739489 -8.63251,10.41855 -13.99062,22.62313 -15.47899,36.01841 -0.89302,6.84647 -0.89302,14.28829 0,21.13476 0.59535,5.95346 5.65578,8.93018 11.60924,7.73949 2.97673,-0.59534 5.95345,-2.08371 8.03716,-3.86974 5.95346,-4.76277 8.93019,-11.31157 11.31157,-18.45571 3.57207,-11.90691 8.03716,-23.51615 8.63251,-35.72073 z M 927.36785,99.485192 c -0.59535,0.297673 -0.89302,0.595348 -1.1907,0.893018 -7.14414,10.41855 -14.28829,20.53942 -21.43243,30.95797 -0.29768,0.59534 -0.29768,1.78603 -0.29768,2.67905 1.19069,9.8232 -1.19069,18.45571 -8.93018,24.70684 -1.78604,1.48836 -3.86974,2.38138 -5.65578,3.57207 5.35811,11.90691 16.96735,16.66968 26.79055,11.01389 2.67905,-1.48836 5.06043,-3.86974 6.84647,-6.5488 5.65578,-7.44181 8.93018,-15.77665 8.33484,-25.00451 -0.89302,-13.99062 -2.67906,-27.98124 -4.46509,-42.269528 z M 443.05428,132.82454 c 3.2744,0 5.65578,0.59535 8.33484,0.29767 13.0976,-1.19069 25.00451,-12.20458 27.98124,-25.59985 0.89302,-3.57208 0.59534,-7.739495 0,-11.609241 -0.29768,-3.2744 -2.97673,-5.060437 -6.25113,-4.465091 -2.97673,0.595345 -6.5488,1.488363 -8.93018,3.572073 -11.31157,9.525529 -17.86037,22.325459 -21.13477,37.804439 z m 233.07776,-0.59535 c 0.89302,0.29768 1.48837,0.59535 1.78604,0.59535 15.77666,2.67906 33.33935,-11.31156 35.12539,-28.57658 0.29767,-4.465095 1.48836,-9.823205 -3.86975,-11.906914 -5.06044,-2.083709 -9.52553,0.595345 -13.0976,3.869746 -8.33484,7.441818 -13.69295,16.669678 -17.26502,27.385898 -1.19069,2.67905 -1.78604,5.65578 -2.67906,8.6325 z"
   id="path6"
   inkscape:connector-curvature="0"
   style="fill:#ffffff;stroke-width:2.97672749" />
<path
   class="st0"
   d="m 98.349242,20.304244 c -22.623128,6.25112 -41.078839,17.26502 -46.734621,41.971854 -1.786037,7.441819 -1.488364,14.883638 0.893018,22.027784 1.786037,5.060436 0.893018,7.441818 -3.2744,10.418546 C 39.410038,102.16425 26.014764,97.699155 23.33571,85.792245 18.870618,67.93188 24.526401,52.452898 37.326329,39.652974 53.69833,22.983294 73.940077,14.350784 96.563206,10.481044 c 20.241744,-3.5720797 39.888144,-3.2743997 59.236874,4.16741 5.65578,2.08371 11.01389,4.76277 15.47898,8.03717 22.02779,16.07433 23.21848,43.162547 2.67906,61.022912 -7.73949,6.846473 -16.96735,11.013892 -26.79055,14.585965 -1.48836,0.595345 -2.97673,1.190691 -4.76276,1.786039 2.97672,1.78603 5.95345,3.2744 8.63251,5.06043 18.75338,12.50226 23.21847,35.42306 10.12087,53.87877 -11.31157,16.07433 -27.68357,24.40917 -46.73462,27.68357 -17.860364,2.97673 -35.125383,1.48836 -51.795057,-5.65578 -2.976728,-1.1907 -5.655783,-0.29768 -8.037165,0.89301 -11.013891,5.65579 -22.325456,8.93019 -34.827711,8.93019 -4.167419,0 -8.63251,-0.29768 -10.7162194,-4.76277 -2.0837092,-4.46509 -0.2976728,-8.63251 2.6790544,-12.20458 4.762764,-6.25113 11.609238,-9.8232 19.051056,-11.01389 10.120874,-1.48837 15.478983,-8.03717 18.455711,-16.372 4.465091,-12.50226 8.63251,-25.30219 12.799928,-38.10212 C 68.284295,89.364318 72.451713,69.420244 81.381896,51.262207 86.740005,40.843664 92.69346,30.722784 98.349242,20.304244 Z M 73.642404,166.75923 c 9.525528,4.46509 19.051056,7.44182 29.171926,4.46509 16.372,-4.46509 29.17193,-21.73011 29.4696,-39.59047 0,-14.28829 -11.31156,-25.89753 -25.59985,-25.89753 -5.65579,0 -5.65579,0 -7.144147,5.35811 -5.358109,20.24175 -11.906909,39.2928 -25.897529,55.6648 z M 103.70735,93.531737 c 2.67905,-0.297673 4.76276,-0.595346 6.84647,-0.595346 25.59986,-2.679054 41.67419,-22.027783 39.59048,-47.627637 -1.19069,-14.88364 -10.12088,-24.40917 -24.70684,-26.1952 -7.14415,24.70683 -14.28829,49.115999 -21.73011,74.418183 z"
   id="path8"
   inkscape:connector-curvature="0"
   style="fill:#ffffff;stroke-width:2.97672749" />
<path
   d="m 547.53742,151.8756 c 0.89302,-13.0976 3.86974,-26.19521 10.12087,-38.39979 3.86975,-7.44182 9.22786,-13.39527 16.96735,-16.967346 6.25113,-2.976727 10.41854,-1.190691 12.50225,5.655786 2.67906,8.63251 1.78604,17.26502 0,25.89753 -2.38138,11.31156 -7.14414,22.02778 -14.58596,30.66029 -2.97673,3.2744 -6.5488,6.25113 -10.41855,8.03716 -7.14414,3.2744 -13.0976,-0.89301 -13.99062,-8.63251 -0.29767,-1.78603 -0.59534,-3.57207 -0.59534,-6.25112 z"
   id="path10"
   inkscape:connector-curvature="0"
   style="stroke-width:2.97672749" />
<path
   d="m 256.41347,109.60607 c -0.89302,12.20458 -5.06044,23.81382 -8.63251,35.42305 -2.08371,7.14415 -5.35811,13.69295 -11.31157,18.45571 -2.38138,1.78604 -5.35811,3.2744 -8.03716,3.86975 -5.95346,1.19069 -11.01389,-1.78604 -11.60924,-7.73949 -0.89302,-6.84648 -0.89302,-14.28829 0,-21.13477 1.78604,-13.39527 6.84648,-25.59985 15.47899,-36.0184 3.57207,-4.167419 7.73949,-7.739492 13.39527,-7.739492 5.65578,-0.297673 9.52553,3.2744 10.12087,8.632512 0.29768,2.08371 0.59535,4.16742 0.59535,6.25113 z"
   id="path12"
   inkscape:connector-curvature="0"
   style="stroke-width:2.97672749" />
<path
   d="m 927.36785,99.485192 c 1.48836,14.288288 3.57207,28.278908 4.46509,42.269528 0.59534,9.22786 -2.67906,17.86037 -8.33484,25.00451 -1.78604,2.38139 -4.16742,4.76277 -6.84647,6.5488 -9.8232,5.65579 -21.43244,0.89302 -26.79055,-11.01389 1.78604,-1.19069 3.86974,-2.08371 5.65578,-3.57207 7.73949,-6.5488 10.12087,-15.18131 8.93018,-24.70684 0,-0.89302 -0.29767,-2.08371 0.29768,-2.67905 7.14414,-10.41855 14.28829,-20.53942 21.43243,-30.95797 0.29768,-0.29767 0.59535,-0.595345 1.1907,-0.893018 z"
   id="path14"
   inkscape:connector-curvature="0"
   style="stroke-width:2.97672749" />
<path
   d="m 443.05428,132.82454 c 3.57208,-15.18131 9.8232,-27.98124 21.43244,-37.804439 2.38138,-1.786037 5.65578,-2.976728 8.93018,-3.572073 3.2744,-0.595346 5.95346,1.190691 6.25113,4.465091 0.59535,3.869746 0.59535,7.739491 0,11.609241 -2.97673,13.39527 -14.88364,24.11149 -27.98124,25.59985 -2.97673,0.29768 -5.65578,-0.29767 -8.63251,-0.29767 z"
   id="path16"
   inkscape:connector-curvature="0"
   style="stroke-width:2.97672749" />
<path
   d="m 676.13204,132.22919 c 0.89302,-2.97672 1.48837,-5.95345 2.67906,-8.93018 3.57207,-10.41854 8.93018,-19.94407 17.26502,-27.385891 3.86974,-3.2744 8.33484,-5.953455 13.0976,-3.869746 5.06044,2.381382 4.16742,7.441819 3.86975,11.906907 -1.78604,17.26502 -19.05106,31.25564 -35.12539,28.57659 -0.59534,0.29767 -0.89302,0 -1.78604,-0.29768 z"
   id="path18"
   inkscape:connector-curvature="0"
   style="stroke-width:2.97672749" />
<path
   d="m 73.642404,166.75923 c 13.99062,-16.372 20.53942,-35.72073 25.897529,-55.36713 1.488357,-5.35811 1.488357,-5.35811 7.144147,-5.35811 14.28829,0 25.59985,11.31157 25.59985,25.89753 0,17.56269 -13.0976,35.12539 -29.4696,39.59048 -10.12087,2.67905 -19.348725,0 -29.171926,-4.76277 z"
   id="path20"
   inkscape:connector-curvature="0"
   style="stroke-width:2.97672749" />
<path
   d="m 103.70735,93.531737 c 7.44182,-25.302184 14.58596,-50.009023 21.73011,-74.418183 14.58596,1.48836 23.51615,11.01389 24.70684,26.1952 2.08371,25.599854 -13.99062,44.948583 -39.59048,47.627637 -2.08371,0.297673 -4.46509,0.297673 -6.84647,0.595346 z"
   id="path22"
   inkscape:connector-curvature="0"
   style="stroke-width:2.97672749" />
</svg>