<?xml version="1.0" encoding="UTF-8"?>
<svg xmlns="http://www.w3.org/2000/svg" id="Layer_2" viewBox="0 0 598.7233 92.126">
  <g id="Components">
    <g id="e8628f7b-5463-48e0-8a82-7d6604b2772d_x40_1">
      <rect width="246.6142" height="92.126" style="fill:#da0e17;"></rect>
      <path d="M8.6956,83.7694v-13.0966c14.8495,3.4378,27.5537,5.155,38.1218,5.155,7.3916,0,13.2185-.9101,17.477-2.7307,4.2547-1.822,6.3839-4.2955,6.3839-7.4254,0-2.4753-1.3399-4.5632-4.0082-6.2633-2.6756-1.7021-7.7379-3.7237-15.1969-6.0606l-9.2229-2.837c-12.3667-3.8488-21.0993-7.5341-26.1936-11.0583-5.0959-3.5224-7.6411-7.6404-7.6411-12.3487,0-6.2905,4.1758-11.3456,12.5335-15.1591,8.3589-3.8135,19.4017-5.7236,33.1368-5.7236,10.9978,0,23.3954.8762,37.1888,2.6291v12.2204c-14.1077-2.9219-25.2606-4.3836-33.4595-4.3836-6.342,0-11.4215.7833-15.2419,2.3484-3.8196,1.5613-5.7309,3.6171-5.7309,6.1616,0,2.0964,1.3353,3.9338,4.0082,5.5174,2.671,1.5819,7.7047,3.5242,15.1001,5.8268l9.8805,3.0387c13.2928,4.1246,22.4571,7.9245,27.4946,11.3962,5.0338,3.4735,7.5504,7.6998,7.5504,12.6839,0,7.0839-4.7545,12.6349-14.262,16.655-9.5102,4.0229-22.6197,6.033-39.3321,6.033-11.0615,0-23.9219-.8612-38.5866-2.5784" style="fill:#fff;"></path>
      <rect x="109.8219" y="8.107" width="28.7076" height="76.3118" style="fill:#fff;"></rect>
      <path d="M240.6264,81.4363c-10.5738,3.3448-23.1836,5.0113-37.8448,5.0113-17.893,0-31.8243-3.5479-41.8145-10.6755-9.9799-7.1042-14.9649-17.0304-14.9649-29.7653,0-12.9834,5.028-22.9568,15.0887-29.9526,10.0557-6.9958,24.4091-10.498,43.0603-10.498,11.8973,0,23.7283,1.0234,35.4946,3.0621v12.5318c-13.326-3.3347-24.4792-5.0148-33.4663-5.0148-11.5072,0-20.3785,2.5801-26.6214,7.725-6.243,5.1469-9.3646,12.4608-9.3646,21.9232,0,9.2869,3.356,16.5313,10.0542,21.7272,6.7054,5.2074,16.0301,7.7994,27.964,7.7994,10.7053,0,21.5096-1.9017,32.4149-5.7118v11.838Z" style="fill:#fff;"></path>
      <path d="M598.1163,73.8591c-.404-.768-1.031-1.445-1.881-2.033-.85-.588-2.188-1.221-4.014-1.899-2.049-.754-3.376-1.324-3.983-1.707-.606-.384-.9091-.837-.9091-1.362,0-.933.941-1.4,2.822-1.4,1.059,0,2.098.147,3.115.441,1.017.294,2.1121.671,3.282,1.132l1.9241-4.22c-2.663-1.125-5.401-1.688-8.2161-1.688-2.955,0-5.2369.522-6.8469,1.564-1.61,1.042-2.4141,2.515-2.4141,4.42,0,1.113.191,2.05.574,2.81.384.761.9971,1.436,1.8401,2.024.843.588,2.1639,1.227,3.9619,1.918,1.254.486,2.2581.911,3.01,1.275.7531.364,1.282.691,1.589.978.306.288.4601.662.4601,1.122,0,1.228-1.157,1.841-3.47,1.841-1.129,0-2.436-.172-3.92-.517-1.485-.346-2.819-.774-4.004-1.285v4.833c1.046.409,2.167.719,3.366.93,1.199.211,2.6481.317,4.349.317,3.316,0,5.808-.576,7.473-1.727,1.666-1.15,2.499-2.825,2.499-5.025,0-1.061-.203-1.975-.607-2.742" style="fill:#fff;"></path>
      <path d="M576.6524,68.9871c0-2.544-.704-4.491-2.1121-5.84-1.408-1.349-3.47-2.024-6.188-2.024-1.589,0-3.007.266-4.254.796-1.2479.531-2.2269,1.314-2.937,2.35h-.356l-.857-2.743h-4.871v21.443h6.376v-10.089c0-2.531.397-4.344,1.192-5.437.7941-1.093,2.083-1.64,3.8671-1.64,1.3099,0,2.265.387,2.865,1.161.599.773.8979,1.934.8979,3.481v12.524h6.3771v-13.982Z" style="fill:#fff;"></path>
      <path d="M549.4295,66.321c-.9202-1.675-2.2371-2.96-3.9512-3.855-1.7148-.895-3.6938-1.343-5.937-1.343-3.6099,0-6.4121.972-8.4048,2.916-1.9932,1.943-2.9893,4.667-2.9893,8.17,0,2.251.46,4.22,1.3801,5.907.9199,1.688,2.2371,2.983,3.9509,3.884,1.7141.902,3.6929,1.353,5.937,1.353,3.582,0,6.376-.985,8.3831-2.954,2.0071-1.969,3.011-4.699,3.011-8.19,0-2.25-.46-4.213-1.3799-5.888ZM543.1682,77.0331c-.7458,1.081-1.9688,1.621-3.6689,1.621-1.7148,0-2.9519-.544-3.7109-1.631-.76-1.086-1.1392-2.691-1.1392-4.814,0-2.135.376-3.73,1.1282-4.785.7529-1.055,1.979-1.582,3.6799-1.582,1.7139,0,2.948.53,3.7002,1.591.7529,1.062,1.1289,2.654,1.1289,4.776,0,2.136-.373,3.743-1.1182,4.824Z" style="fill:#fff;"></path>
      <rect x="517.4033" y="61.5261" width="6.376" height="21.443" style="fill:#fff;"></rect>
      <path d="M520.5913,58.8601c1.157,0,2.024-.252,2.603-.757.578-.505.867-1.212.867-2.12,0-1.905-1.157-2.857-3.47-2.857s-3.47.952-3.47,2.857c0,1.918,1.156,2.877,3.47,2.877" style="fill:#fff;"></path>
      <path d="M506.6464,78.0971c-.509-.396-.7631-1.01-.7631-1.841v-10.338h6.5441v-4.392h-6.5441v-4.565h-4.076l-1.84,4.527-3.512,1.956v2.474h3.052v10.338c0,2.366.582,4.14,1.746,5.322,1.163,1.183,3.0211,1.775,5.571,1.775,2.313,0,4.265-.327,5.854-.979v-4.353c-1.561.447-2.899.671-4.014.671-.8359,0-1.509-.198-2.0179-.595" style="fill:#fff;"></path>
      <path d="M493.5273,82.9691v-21.443h-6.376v10.089c0,2.531-.397,4.344-1.192,5.437-.794,1.093-2.083,1.64-3.867,1.64-1.31,0-2.265-.387-2.864-1.16-.6-.774-.899-1.934-.899-3.482v-12.524h-6.376v13.982c0,2.532.696,4.472,2.09,5.821,1.394,1.349,3.463,2.024,6.209,2.024,1.603,0,3.032-.272,4.286-.816,1.254-.543,2.223-1.313,2.906-2.311h.334l.8571,2.743h4.892Z" style="fill:#fff;"></path>
      <rect x="460.7694" y="53.1261" width="6.376" height="29.843" style="fill:#fff;"></rect>
      <path d="M455.6774,66.321c-.9202-1.675-2.2371-2.96-3.9519-3.855-1.7141-.895-3.6931-1.343-5.937-1.343-3.6101,0-6.4111.972-8.4041,2.916-1.9929,1.943-2.989,4.667-2.989,8.17,0,2.251.459,4.22,1.3789,5.907.9199,1.688,2.2371,2.983,3.9512,3.884,1.7148.902,3.6938,1.353,5.938,1.353,3.5808,0,6.376-.985,8.3828-2.954,2.0071-1.969,3.01-4.699,3.01-8.19,0-2.25-.46-4.213-1.3789-5.888ZM449.4154,77.0331c-.7451,1.081-1.968,1.621-3.6689,1.621-1.7141,0-2.9512-.544-3.7102-1.631-.76-1.086-1.1399-2.691-1.1399-4.814,0-2.135.376-3.73,1.1289-4.785.7529-1.055,1.979-1.582,3.6802-1.582,1.7139,0,2.9468.53,3.7,1.591.752,1.062,1.1289,2.654,1.1289,4.776,0,2.136-.373,3.743-1.1189,4.824Z" style="fill:#fff;"></path>
      <path d="M430.1893,70.5501c-1.059-1.259-3.018-2.515-5.875-3.769-2.16-.946-3.529-1.601-4.108-1.966-.578-.364-1-.741-1.264-1.131-.265-.39-.398-.847-.398-1.371,0-.844.328-1.528.983-2.053.655-.524,1.596-.786,2.822-.786,1.032,0,2.08.122,3.147.364,1.066.243,2.414.672,4.045,1.285l2.09-4.622c-1.575-.626-3.083-1.112-4.526-1.458-1.442-.345-2.958-.517-4.547-.517-3.233,0-5.766.709-7.599,2.129-1.833,1.419-2.749,3.369-2.749,5.849,0,1.317.279,2.468.836,3.453.558.984,1.303,1.847,2.237,2.589.934.742,2.334,1.515,4.202,2.321,1.993.869,3.314,1.502,3.962,1.898.648.397,1.139.809,1.474,1.237.334.429.501.918.501,1.468,0,.984-.379,1.726-1.139,2.225-.76.498-1.85.748-3.272.748-1.184,0-2.491-.173-3.919-.518-1.429-.346-3.175-.94-5.237-1.784v5.524c2.508,1.125,5.393,1.688,8.655,1.688,3.54,0,6.303-.729,8.289-2.187,1.986-1.458,2.979-3.452,2.979-5.984,0-1.828-.53-3.372-1.589-4.632" style="fill:#fff;"></path>
      <path d="M390.9913,62.2261c-1.233.736-2.213,1.704-2.937,2.906h-.314l-.941-3.606h-4.829v21.443h6.376v-10.913c0-1.726.568-3.069,1.704-4.028,1.136-.959,2.721-1.438,4.756-1.438.739,0,1.366.064,1.882.191l.481-5.485c-.572-.115-1.29-.173-2.154-.173-1.449,0-2.791.368-4.024,1.103" style="fill:#fff;"></path>
      <path d="M376.9862,70.8671c0-3.043-.9199-5.428-2.7598-7.154-1.8401-1.727-4.4111-2.59-7.7141-2.59-3.457,0-6.1641.982-8.1221,2.944-1.9578,1.963-2.9368,4.741-2.9368,8.334,0,3.491,1.0588,6.189,3.1768,8.094,2.1191,1.905,5.0591,2.858,8.8232,2.858,1.8247,0,3.3718-.125,4.6409-.374,1.2681-.25,2.459-.63,3.574-1.142v-4.526c-1.366.588-2.675,1.0161-3.9299,1.285-1.2542.269-2.5852.403-3.9929.403-1.812,0-3.2192-.467-4.2231-1.4-1.0029-.934-1.54-2.231-1.6089-3.894h15.0728v-2.838ZM362.0594,69.8121c.1108-1.445.5498-2.561,1.3169-3.347.7661-.786,1.8259-1.1801,3.178-1.1801,1.3511,0,2.425.394,3.219,1.1801.7939.7859,1.2051,1.902,1.2339,3.347h-8.9478Z" style="fill:#fff;"></path>
      <path d="M346.5803,82.9691l6.731-21.443h-6.251l-2.801,9.494c-.139.563-.369,1.646-.69,3.251-.321,1.605-.543,2.867-.669,3.788h-.125c-.014-.358-.067-.834-.157-1.429-.091-.594-.192-1.202-.303-1.822-.112-.62-.227-1.205-.345-1.755-.119-.55-.206-.965-.261-1.247l-2.739-10.28h-7.024l-2.885,10.28-.335,1.631c-.432,2.109-.676,3.65-.732,4.622h-.125c-.446-2.992-.885-5.338-1.317-7.039l-2.697-9.494h-6.355l6.648,21.443h6.857l4.265-16.974h.146l2.425,9.475,1.798,7.499h6.941Z" style="fill:#fff;"></path>
      <path d="M314.0785,66.321c-.9192-1.675-2.2361-2.96-3.9512-3.855-1.7139-.895-3.6929-1.343-5.937-1.343-3.6099,0-6.4109.972-8.4038,2.916-1.9932,1.943-2.9902,4.667-2.9902,8.17,0,2.251.46,4.22,1.3801,5.907.9199,1.688,2.2371,2.983,3.9509,3.884,1.7151.902,3.6931,1.353,5.938,1.353,3.5811,0,6.376-.985,8.3831-2.954,2.0071-1.969,3.01-4.699,3.01-8.19,0-2.25-.46-4.213-1.3799-5.888ZM307.8172,77.0331c-.7458,1.081-1.969,1.621-3.6689,1.621-1.7139,0-2.9509-.544-3.7109-1.631-.759-1.086-1.1392-2.691-1.1392-4.814,0-2.135.3762-3.73,1.1292-4.785.7529-1.055,1.979-1.582,3.679-1.582,1.7151,0,2.948.53,3.7012,1.591.752,1.062,1.1289,2.654,1.1289,4.776,0,2.136-.373,3.743-1.1191,4.824Z" style="fill:#fff;"></path>
      <path d="M287.5115,57.1241c-1.9312-1.463-4.75-2.196-8.457-2.196h-9.7632v28.041h6.481v-9.973h2.78c3.791,0,6.7141-.799,8.77-2.398,2.0559-1.598,3.084-3.906,3.084-6.924,0-2.902-.9648-5.085-2.8948-6.55ZM282.3782,67.04c-.9897.723-2.481,1.084-4.4739,1.084h-2.1321v-8.324h2.9482c1.7688,0,3.0688.333,3.8989.997.8289.665,1.2439,1.695,1.2439,3.088,0,1.381-.4949,2.433-1.4851,3.155Z" style="fill:#fff;"></path>
      <path d="M579.4104,10.5729v6.866c0,1.253.1602,2.679.481,4.277h-.209c-1.5469-2.097-3.791-3.146-6.731-3.146-2.8018,0-5.001.982-6.5959,2.945-1.5959,1.962-2.3938,4.702-2.3938,8.218,0,3.465.7837,6.176,2.3518,8.132,1.5681,1.956,3.7239,2.935,6.47,2.935,2.969,0,5.1782-1.055,6.627-3.165h.272l1.2341,2.781h4.8918V10.5729h-6.3979ZM579.8494,30.4039c-.0698,2.085-.4839,3.561-1.2429,4.431-.76.869-1.9548,1.304-3.5859,1.304-1.4771,0-2.613-.527-3.408-1.582-.7939-1.055-1.1909-2.638-1.1909-4.7469,0-2.11.394-3.718,1.1809-4.824.7869-1.106,1.8918-1.659,3.314-1.659,1.7419,0,3,.499,3.7729,1.496.7742.9969,1.1599,2.647,1.1599,4.948v.633Z" style="fill:#fff;"></path>
      <rect x="553.4175" y="18.9729" width="6.376" height="21.443" style="fill:#fff;"></rect>
      <path d="M556.6055,16.3069c1.157,0,2.024-.252,2.603-.757.578-.505.8669-1.212.8669-2.12,0-1.905-1.157-2.857-3.47-2.857s-3.47.952-3.47,2.857c0,1.918,1.156,2.877,3.47,2.877" style="fill:#fff;"></path>
      <path d="M543.8955,19.6729c-1.233.736-2.213,1.704-2.937,2.906h-.314l-.941-3.606h-4.829v21.443h6.376v-10.913c0-1.726.568-3.069,1.704-4.028,1.136-.959,2.721-1.438,4.756-1.438.739,0,1.366.064,1.882.191l.481-5.485c-.572-.115-1.29-.173-2.1539-.173-1.449,0-2.791.368-4.024,1.103" style="fill:#fff;"></path>
      <path d="M528.5644,21.5339c-1.561-1.976-3.7209-2.9641-6.48-2.9641-2.9268,0-5.136,1.062-6.627,3.184h-.251c.167-1.943.251-3.356.251-4.238v-6.943h-6.377v29.843h4.8711l1.0669-2.359h.439c1.5601,1.829,3.7141,2.743,6.459,2.743,2.7739,0,4.9661-.972,6.5752-2.916,1.6099-1.943,2.4148-4.686,2.4148-8.228,0-3.439-.781-6.147-2.342-8.1219ZM523.2446,34.4028c-.7739,1.106-1.8159,1.659-3.125,1.659-1.6172,0-2.7991-.498-3.5439-1.496-.7461-.997-1.1182-2.647-1.1182-4.948v-.633c.0271-2.046.4041-3.513,1.1279-4.402.7251-.888,1.875-1.3329,3.4502-1.3329,1.3521,0,2.418.528,3.199,1.5829.78,1.054,1.1699,2.637,1.1699,4.747s-.387,3.717-1.1599,4.823Z" style="fill:#fff;"></path>
      <path d="M490.9626,40.2629l-.376,1.054c-.474,1.279-1.132,2.235-1.976,2.868-.843.633-1.829.949-2.958.949-.906,0-1.7419-.083-2.508-.249v4.641c1.059.218,2.139.326,3.2401.326,2.244,0,4.205-.556,5.8849-1.668,1.679-1.113,2.972-2.788,3.878-5.025l9.8881-24.186h-6.8361l-4.327,12.064c-.446,1.164-.746,2.404-.899,3.721h-.126c-.139-1.432-.397-2.672-.773-3.721l-4.4109-12.064h-6.983l9.282,21.29Z" style="fill:#fff;"></path>
      <polygon points="478.0835 12.3749 471.6236 12.3749 471.6236 23.3649 459.5185 23.3649 459.5185 12.3749 453.0386 12.3749 453.0386 40.4159 459.5185 40.4159 459.5185 28.3139 471.6236 28.3139 471.6236 40.4159 478.0835 40.4159 478.0835 12.3749" style="fill:#fff;"></polygon>
      <path d="M437.0675,18.9728h-8.1531c-.251-.051-.8259-.131-1.7249-.24-.8989-.108-1.676-.163-2.3311-.163-3.0801,0-5.449.64-7.1079,1.918-1.6582,1.279-2.4871,3.088-2.4871,5.428,0,1.458.3579,2.724,1.0759,3.798.718,1.074,1.6899,1.854,2.917,2.34-.9761.524-1.7219,1.058-2.2368,1.601-.5161.544-.7742,1.225-.7742,2.043,0,.652.2439,1.269.7322,1.851.4878.582,1.0588,1,1.7139,1.256-1.7.371-2.989.991-3.8669,1.86-.8782.87-1.3181,1.95-1.3181,3.242,0,1.879.8611,3.34,2.582,4.382,1.7222,1.0421,4.2129,1.563,7.4741,1.563,4.2649,0,7.5369-.69,9.8149-2.071,2.2788-1.381,3.418-3.325,3.418-5.831,0-1.956-.6719-3.439-2.0171-4.449-1.345-1.01-3.2998-1.515-5.864-1.515h-3.9719c-2.3411,0-3.512-.422-3.512-1.266,0-.563.3269-1.074.9819-1.535l.9412.0959,1.1499.058c3.1079,0,5.5359-.643,7.2859-1.928,1.748-1.285,2.623-3.078,2.623-5.38,0-1.189-.334-2.263-1.0029-3.222l3.658-.863v-2.973ZM423.1447,40.6849h3.3027c1.603,0,2.7881.153,3.5542.46.7659.307,1.1499.863,1.1499,1.668,0,.998-.6479,1.784-1.9438,2.36-1.2961.575-3.0872.863-5.373.863-1.519,0-2.7012-.231-3.5439-.691-.8433-.46-1.2642-1.093-1.2642-1.899,0-.831.3931-1.499,1.1812-2.004.7869-.505,1.7659-.757,2.937-.757ZM427.4926,28.7548c-.5569.678-1.4351,1.0161-2.634,1.0161-1.1841,0-2.0659-.338-2.644-1.0161-.5791-.678-.8679-1.598-.8679-2.762,0-2.583,1.1709-3.874,3.512-3.874,2.314,0,3.4709,1.291,3.4709,3.874,0,1.164-.2791,2.084-.8369,2.762Z" style="fill:#fff;"></path>
      <path d="M410.6625,26.4339c0-2.544-.704-4.491-2.112-5.84-1.408-1.349-3.47-2.024-6.188-2.024-1.589,0-3.007.266-4.254.796-1.248.531-2.227,1.314-2.938,2.35h-.355l-.857-2.743h-4.871v21.443h6.376v-10.088c0-2.532.397-4.345,1.192-5.438.794-1.093,2.083-1.64,3.867-1.64,1.31,0,2.265.387,2.864,1.161.599.773.899,1.934.899,3.481v12.524h6.377v-13.982Z" style="fill:#fff;"></path>
      <rect x="376.5216" y="18.9729" width="6.376" height="21.443" style="fill:#fff;"></rect>
      <path d="M379.7091,16.3069c1.157,0,2.025-.252,2.603-.757s.868-1.212.868-2.12c0-1.905-1.157-2.857-3.471-2.857s-3.47.952-3.47,2.857c0,1.918,1.157,2.877,3.47,2.877" style="fill:#fff;"></path>
      <path d="M363.9555,10.5729v6.866c0,1.253.1602,2.679.4802,4.277h-.2092c-1.5469-2.097-3.7908-3.146-6.731-3.146-2.802,0-5,.982-6.5959,2.945-1.5959,1.962-2.394,4.702-2.394,8.218,0,3.465.7842,6.176,2.3521,8.132,1.5679,1.956,3.7251,2.935,6.4709,2.935,2.968,0,5.177-1.055,6.627-3.165h.271l1.2341,2.781h4.8921V10.5729h-6.3972ZM364.3947,30.4039c-.0701,2.085-.4851,3.561-1.2441,4.431-.76.869-1.9551,1.304-3.5859,1.304-1.4771,0-2.613-.527-3.407-1.582-.7952-1.055-1.1921-2.638-1.1921-4.7469,0-2.11.394-3.718,1.1812-4.824.7878-1.106,1.8918-1.659,3.314-1.659,1.7419,0,3,.499,3.7729,1.496.7739.9969,1.1611,2.647,1.1611,4.948v.633Z" style="fill:#fff;"></path>
      <rect x="337.3616" y="10.5729" width="6.376" height="29.843" style="fill:#fff;"></rect>
      <rect x="324.4955" y="18.9729" width="6.376" height="21.443" style="fill:#fff;"></rect>
      <path d="M327.683,16.3069c1.157,0,2.025-.252,2.603-.757s.868-1.212.868-2.12c0-1.905-1.157-2.857-3.471-2.857s-3.47.952-3.47,2.857c0,1.918,1.157,2.877,3.47,2.877" style="fill:#fff;"></path>
      <path d="M318.3055,40.4159v-21.443h-6.376v10.089c0,2.531-.398,4.344-1.192,5.437-.794,1.093-2.084,1.64-3.868,1.64-1.31,0-2.265-.387-2.864-1.16-.599-.774-.899-1.934-.899-3.482v-12.524h-6.376v13.982c0,2.532.697,4.472,2.091,5.821,1.393,1.349,3.463,2.024,6.209,2.024,1.602,0,3.031-.272,4.285-.816,1.255-.543,2.223-1.313,2.906-2.311h.335l.857,2.743h4.892Z" style="fill:#fff;"></path>
      <path d="M290.6675,27.9488c-.8569-1.086-2.2539-1.828-4.1909-2.225v-.191c1.4209-.218,2.5601-.863,3.418-1.937.8569-1.075,1.2849-2.449,1.2849-4.124,0-2.468-.979-4.268-2.937-5.399-1.958-1.132-5.105-1.698-9.439-1.698h-9.512v28.041h11.4351c3.457,0,6.1921-.716,8.2061-2.148,2.0139-1.4319,3.021-3.427,3.021-5.9839,0-1.803-.429-3.248-1.2861-4.335ZM275.7725,17.2468h3.407c1.854,0,3.209.234,4.0671.7.8569.467,1.2849,1.237,1.2849,2.311,0,1.151-.394,1.976-1.1809,2.474-.7871.499-2.0591.748-3.8152.748h-3.7629v-6.233ZM283.9465,34.5659c-.8501.627-2.167.94-3.9509.94h-4.2231v-7.307h4.0142c3.6228,0,5.4348,1.163,5.4348,3.49,0,1.292-.4248,2.251-1.2749,2.877Z" style="fill:#fff;"></path>
    </g>
  </g>
</svg>
